# xmcd
#
# Track frame offsets:
#	150
#	13420
#	26992
#	38742
#	51795
#	64087
#	74935
#	92172
#	105842
#	116982
#	127254
#
# Disc length: 1859 seconds
#
# Revision: 1
# Processed by: cddbd v1.5.1PL0 Copyright (c) Steve Scherf et al.
# Submitted via: audiograbber 1.83.01
#
DISCID=a807410b
DTITLE=Hillbilly Cafe - Hillbilly Cafe
DYEAR=1996
DGENRE=Rockabilly
TTITLE0=Angel
TTITLE1=This heart
TTITLE2=I like what I see
TTITLE3=No one but you
TTITLE4=Put the hurt on me
TTITLE5=You're out
TTITLE6=Since I left you
TTITLE7=Dark days
TTITLE8=Hot tonight
TTITLE9=Crazy crazy lovin
TTITLE10=Look my way
EXTD=
EXTT0=
EXTT1=
EXTT2=
EXTT3=
EXTT4=
EXTT5=
EXTT6=
EXTT7=
EXTT8=
EXTT9=
EXTT10=
PLAYORDER=
